# File created by Blade
# Date/Time:  Wed Jan 21 16:33:30 2015
# Frame Rate: 120.000 fps
#------------------------------------------------------
:FULLY-SPECIFIED
:DEGREES
261
root 27.766213 27.618574 -24.354662 -204.820332 91.459501 -220.647915
Spine 58.852092 7.399001 -2.214082
Head -13.493200 -3.503076 5.233190
LeftShoulder 11.929981 -31.066139 -1.695901
LeftArm 16.235353 27.630081 -60.812575
LeftForeArm -0.788398 -0.000000 13.090385
LeftHand 3.765925 0.000000 16.696381
LeftHandThumb1 -26.253704 0.000000 33.147579
RightShoulder 10.560741 -5.477272 -1.697737
RightArm 41.608268 -12.413545 45.045400
RightForeArm -23.824113 -0.000000 28.033829
RightHand -3.083037 -0.000000 -12.060605
RightHandThumb1 -24.326973 -0.000000 -32.862282
LeftUpLeg -71.140369 -2.693036 -2.795223
LeftLeg 68.523565 -0.000000 -0.000000
LeftFoot -36.522833 34.186274 -12.558347
LeftToeBase 21.594568 -0.000000 -0.000000
RightUpLeg -72.168954 10.814682 -0.484115
RightLeg 68.487761 -0.000000 -0.000000
RightFoot -37.021043 -33.188052 17.700264
RightToeBase 14.372585 -0.000000 -0.000000
262
root 27.722281 27.213515 -24.338252 -200.900517 91.527930 -217.018306
Spine 58.948445 7.549093 -2.219723
Head -13.567781 -3.493981 5.161733
LeftShoulder 12.090425 -31.148231 -1.787764
LeftArm 16.488239 28.098523 -60.365179
LeftForeArm -0.574638 -0.000000 13.367280
LeftHand 3.684354 -0.000000 16.990464
LeftHandThumb1 -26.253704 0.000000 33.147579
RightShoulder 10.621089 -5.364022 -1.718074
RightArm 41.482722 -12.563791 44.863262
RightForeArm -23.938044 -0.000000 28.069570
RightHand -3.260459 0.000000 -12.385686
RightHandThumb1 -24.326973 -0.000000 -32.862282
LeftUpLeg -72.746158 -2.932947 -2.604009
LeftLeg 70.426564 -0.000000 -0.000000
LeftFoot -36.980508 34.739678 -12.295192
LeftToeBase 21.904418 -0.000000 -0.000000
RightUpLeg -73.834520 10.892202 -0.596768
RightLeg 70.296788 -0.000000 -0.000000
RightFoot -37.439760 -33.731769 17.145320
RightToeBase 15.383495 -0.000000 -0.000000
263
root 27.662883 26.811731 -24.345471 -188.792982 91.326407 -205.302513
Spine 58.905713 7.423712 -2.635585
Head -13.598670 -3.351019 5.111482
LeftShoulder 12.034452 -31.085587 -1.737894
LeftArm 16.966550 28.662339 -59.732194
LeftForeArm -0.853231 -0.000000 13.642759
LeftHand 3.598184 -0.000000 17.210489
LeftHandThumb1 -26.253704 0.000000 33.147579
RightShoulder 10.925228 -4.612507 -1.753497
RightArm 40.766506 -13.103069 45.027457
RightForeArm -23.975526 -0.000000 28.081012
RightHand -3.351772 -0.000000 -12.915741
RightHandThumb1 -24.326973 -0.000000 -32.862282
LeftUpLeg -74.014623 -3.763932 -2.304108
LeftLeg 71.591620 -0.000000 -0.000000
LeftFoot -37.143335 36.420544 -10.192639
LeftToeBase 23.253241 -0.000000 -0.000000
RightUpLeg -75.652029 10.634727 -0.956651
RightLeg 72.131617 -0.000000 -0.000000
RightFoot -37.562447 -34.393716 16.251679
RightToeBase 16.828835 -0.000000 -0.000000
264
root 27.650295 26.384646 -24.325555 -185.902372 91.415870 -202.379761
Spine 59.254544 7.622964 -2.513604
Head -13.614585 -3.432016 5.034597
LeftShoulder 12.275021 -31.291627 -1.850300
LeftArm 17.092384 29.319937 -59.438460
LeftForeArm -0.539220 -0.000000 13.798298
LeftHand 3.664711 -0.000000 17.491579
LeftHandThumb1 -26.253704 0.000000 33.147579
RightShoulder 10.993675 -4.619361 -1.836584
RightArm 40.583636 -13.238648 44.865540
RightForeArm -23.891408 0.000000 28.154178
RightHand -3.527869 0.000000 -13.571340
RightHandThumb1 -24.326973 -0.000000 -32.862282
LeftUpLeg -75.317634 -3.856073 -2.225358
LeftLeg 73.605046 -0.000000 -0.000000
LeftFoot -37.702699 36.863874 -9.839095
LeftToeBase 23.607816 -0.000000 -0.000000
RightUpLeg -77.062202 10.671628 -0.921433
RightLeg 74.098459 -0.000000 -0.000000
RightFoot -37.669267 -34.446725 16.198094
RightToeBase 16.293689 -0.000000 -0.000000
265
root 27.652829 25.947350 -24.306996 -183.328165 91.469528 -199.629483
Spine 59.678078 7.759954 -2.405634
Head -13.531581 -3.451726 4.903630
LeftShoulder 12.462286 -31.357533 -1.940367
LeftArm 17.318714 29.990195 -59.061837
LeftForeArm -0.264690 -0.000000 14.011408
LeftHand 3.407943 -0.000000 17.883485
LeftHandThumb1 -26.253704 0.000000 33.147579
RightShoulder 11.134880 -4.709506 -1.938574
RightArm 40.449653 -13.366247 44.659677
RightForeArm -23.618182 0.000000 28.134415
RightHand -3.528642 -0.000000 -14.172462
RightHandThumb1 -24.326973 -0.000000 -32.862282
LeftUpLeg -76.518445 -3.901317 -2.226980
LeftLeg 75.710652 -0.000000 -0.000000
LeftFoot -38.266503 37.122361 -9.668686
LeftToeBase 23.913766 -0.000000 -0.000000
RightUpLeg -78.316077 10.673009 -0.822428
RightLeg 76.136575 -0.000000 -0.000000
RightFoot -37.904775 -34.312267 16.072254
RightToeBase 16.946471 -0.000000 -0.000000
266
root 27.660625 25.504974 -24.297647 -179.223313 91.528849 -195.271243
Spine 60.143464 7.919986 -2.289981
Head -13.422600 -3.530511 4.805354
LeftShoulder 12.668668 -31.350947 -2.050790
LeftArm 17.647381 30.623411 -58.669993
LeftForeArm 0.055678 -0.000000 14.129769
LeftHand 3.440464 -0.000000 18.168280
LeftHandThumb1 -26.253704 0.000000 33.147579
RightShoulder 11.233081 -4.859637 -1.980533
RightArm 40.332992 -13.518671 44.329749
RightForeArm -23.363079 -0.000000 28.127541
RightHand -3.636376 -0.000000 -14.858993
RightHandThumb1 -24.326973 -0.000000 -32.862282
LeftUpLeg -77.555502 -3.863175 -2.337569
LeftLeg 77.688891 -0.000000 -0.000000
LeftFoot -38.823474 37.529145 -9.070920
LeftToeBase 24.282041 -0.000000 -0.000000
RightUpLeg -79.457364 10.542373 -0.642383
RightLeg 78.188904 -0.000000 -0.000000
RightFoot -38.177905 -34.144331 15.486178
RightToeBase 18.171908 -0.000000 -0.000000
267
root 27.687179 25.056787 -24.279307 -177.843658 91.539464 -193.462677
Spine 60.755198 8.000900 -2.104307
Head -13.314047 -3.588933 4.668583
LeftShoulder 12.816398 -31.294606 -2.192004
LeftArm 18.159991 31.930771 -57.904814
LeftForeArm -0.050763 -0.000000 14.352894
LeftHand 3.214844 -0.000000 18.715366
LeftHandThumb1 -26.253704 0.000000 33.147579
RightShoulder 11.362372 -4.908912 -2.004816
RightArm 40.226659 -13.912377 43.879941
RightForeArm -23.245614 -0.000000 28.021982
RightHand -3.914615 -0.000000 -15.761998
RightHandThumb1 -24.326973 -0.000000 -32.862282
LeftUpLeg -78.487811 -3.874706 -2.394512
LeftLeg 79.798016 -0.000000 -0.000000
LeftFoot -39.507163 37.757698 -8.978721
LeftToeBase 24.478052 -0.000000 -0.000000
RightUpLeg -80.443490 10.421414 -0.393628
RightLeg 80.320903 -0.000000 -0.000000
RightFoot -38.498225 -33.698469 15.314367
RightToeBase 18.387429 -0.000000 -0.000000
268
root 27.704263 24.602328 -24.242119 -182.137804 91.621008 -197.399155
Spine 61.213277 8.156339 -1.761805
Head -13.134709 -3.687376 4.550715
LeftShoulder 12.979895 -31.169868 -2.304929
LeftArm 18.655925 32.895798 -57.295452
LeftForeArm 0.117777 -0.000000 14.465262
LeftHand 3.439853 -0.000000 18.846458
LeftHandThumb1 -26.253704 0.000000 33.147579
RightShoulder 11.448077 -5.188623 -2.013584
RightArm 40.226351 -14.104405 43.403851
RightForeArm -23.032298 -0.000000 27.981138
RightHand -4.001980 -0.000000 -16.181350
RightHandThumb1 -24.326973 -0.000000 -32.862282
LeftUpLeg -79.529210 -3.728444 -2.284760
LeftLeg 81.904011 -0.000000 -0.000000
LeftFoot -40.118677 38.013294 -8.671282
LeftToeBase 24.890363 -0.000000 -0.000000
RightUpLeg -81.221609 10.781275 -0.440924
RightLeg 81.935847 -0.000000 -0.000000
RightFoot -38.878862 -34.708913 13.727513
RightToeBase 20.174261 -0.000000 -0.000000
269
root 27.746576 24.139242 -24.230915 -178.008694 91.529888 -192.721607
Spine 61.816462 8.150420 -1.646369
Head -12.924323 -3.765933 4.429621
LeftShoulder 13.117882 -31.148799 -2.389176
LeftArm 19.035491 33.890932 -56.834308
LeftForeArm 0.637987 -0.000000 14.499545
LeftHand 3.337502 -0.000000 19.071878
LeftHandThumb1 -26.253704 0.000000 33.147579
RightShoulder 11.514337 -5.390062 -1.973055
RightArm 40.201760 -14.445831 42.891662
RightForeArm -22.767003 -0.000000 27.917084
RightHand -4.188720 0.000000 -16.704132
RightHandThumb1 -24.326973 -0.000000 -32.862282
LeftUpLeg -80.285201 -3.686807 -2.544947
LeftLeg 83.933000 -0.000000 -0.000000
LeftFoot -40.665346 38.280071 -8.126051
LeftToeBase 25.212068 -0.000000 -0.000000
RightUpLeg -82.150947 10.637597 -0.354507
RightLeg 84.102474 -0.000000 -0.000000
RightFoot -39.326369 -34.801385 13.795002
RightToeBase 20.344401 -0.000000 -0.000000
270
root 27.790716 23.671587 -24.209165 -178.016615 91.431928 -192.140666
Spine 62.387940 8.078068 -1.437353
Head -12.625445 -3.741295 4.257600
LeftShoulder 13.205370 -31.023228 -2.438927
LeftArm 19.469760 34.911626 -56.333446
LeftForeArm 1.313472 -0.000000 14.535277
LeftHand 3.138213 -0.000000 19.257584
LeftHandThumb1 -26.253704 0.000000 33.147579
RightShoulder 11.583884 -5.747621 -1.995462
RightArm 40.319183 -14.689895 42.431661
RightForeArm -22.796574 -0.000000 27.818253
RightHand -4.382239 -0.000000 -16.944888
RightHandThumb1 -24.326973 -0.000000 -32.862282
LeftUpLeg -81.069019 -3.735770 -2.611685
LeftLeg 86.001583 -0.000000 -0.000000
LeftFoot -41.244369 38.552322 -7.893742
LeftToeBase 25.588784 -0.000000 -0.000000
RightUpLeg -83.005516 10.486737 -0.117731
RightLeg 86.179439 -0.000000 -0.000000
RightFoot -39.852089 -34.897406 14.050469
RightToeBase 20.002816 -0.000000 -0.000000
271
root 27.839782 23.198149 -24.190496 -177.973903 91.302564 -191.470365
Spine 62.912415 7.962935 -1.216740
Head -12.212567 -3.711015 4.055815
LeftShoulder 13.292255 -30.817393 -2.483678
LeftArm 19.918452 35.926550 -55.825615
LeftForeArm 1.647941 -0.000000 14.561006
LeftHand 3.162449 -0.000000 19.453176
LeftHandThumb1 -26.253704 0.000000 33.147579
RightShoulder 11.651526 -5.966974 -2.011882
RightArm 40.366482 -15.194585 41.949442
RightForeArm -22.751210 -0.000000 27.635750
RightHand -4.623126 0.000000 -17.296403
RightHandThumb1 -24.326973 -0.000000 -32.862282
LeftUpLeg -81.835530 -3.814799 -2.708107
LeftLeg 88.066513 -0.000000 -0.000000
LeftFoot -41.818619 38.785673 -7.754073
LeftToeBase 25.867900 -0.000000 -0.000000
RightUpLeg -83.820417 10.264097 0.150772
RightLeg 88.300959 -0.000000 -0.000000
RightFoot -40.370043 -34.938565 14.003890
RightToeBase 21.397588 -0.000000 -0.000000
272
root 27.895445 22.722583 -24.166402 -180.015987 91.154004 -192.820284
Spine 63.476839 7.824751 -0.965859
Head -11.869039 -3.667157 3.857199
LeftShoulder 13.291869 -30.658383 -2.457005
LeftArm 20.258122 36.818058 -55.526667
LeftForeArm 2.100215 -0.000000 14.582655
LeftHand 3.134153 -0.000000 19.737775
LeftHandThumb1 -26.253704 0.000000 33.147579
RightShoulder 11.682472 -6.061678 -2.035908
RightArm 40.325132 -15.754096 41.607065
RightForeArm -22.820807 -0.000000 27.528709
RightHand -4.687226 -0.000000 -17.207800
RightHandThumb1 -24.326973 -0.000000 -32.862282
LeftUpLeg -82.549288 -3.897019 -2.771578
LeftLeg 90.124538 -0.000000 -0.000000
LeftFoot -42.413490 39.011306 -7.706148
LeftToeBase 26.179774 -0.000000 -0.000000
RightUpLeg -84.550551 9.995584 0.535854
RightLeg 90.400677 -0.000000 -0.000000
RightFoot -40.834410 -34.817560 14.063262
RightToeBase 21.630667 -0.000000 -0.000000
